<svg width="24" height="24" viewBox="0 0 24 24" fill="none" xmlns="http://www.w3.org/2000/svg">
<path d="M4.58818 15.8806L5.31435 15.693L4.58818 15.8806ZM8.08799 19.1747L8.22926 18.4381L8.08799 19.1747ZM10.1526 10.4564L9.94105 11.1759L10.1526 10.4564ZM11.2594 9.34967L10.5398 9.56127L11.2594 9.34967ZM16.6836 3.78518L16.8712 3.05901L16.6836 3.78518ZM19.9777 7.28501L20.7142 7.14375L19.9777 7.28501ZM21.7323 16.4341L20.9957 16.5753L21.7323 16.4341ZM17.237 20.9293L17.0958 21.6659L17.237 20.9293ZM6.0052 6.26286C5.71231 5.96996 5.71231 5.49509 6.0052 5.2022C6.2981 4.9093 6.77297 4.9093 7.06586 5.2022L6.0052 6.26286ZM8.48008 6.61641C8.77297 6.9093 8.77297 7.38418 8.48008 7.67707C8.18718 7.96996 7.71231 7.96996 7.41942 7.67707L8.48008 6.61641ZM6.71231 2.72732C6.41942 2.43443 6.41942 1.95956 6.71231 1.66666C7.0052 1.37377 7.48008 1.37377 7.77297 1.66666L6.71231 2.72732ZM9.18718 3.08088C9.48008 3.37377 9.48008 3.84864 9.18718 4.14154C8.89429 4.43443 8.41942 4.43443 8.12652 4.14154L9.18718 3.08088ZM2.46967 6.96996C2.17678 6.67707 2.17678 6.2022 2.46967 5.90931C2.76256 5.61641 3.23744 5.61641 3.53033 5.90931L2.46967 6.96996ZM4.94454 7.32352C5.23744 7.61641 5.23744 8.09128 4.94454 8.38418C4.65165 8.67707 4.17678 8.67707 3.88388 8.38418L4.94454 7.32352ZM20.9957 16.5753L19.2411 7.42627L20.7142 7.14375L22.4689 16.2928L20.9957 16.5753ZM8.22926 18.4381L17.3783 20.1927L17.0958 21.6659L7.94673 19.9112L8.22926 18.4381ZM5.31435 15.693C5.67585 17.0925 6.81437 18.1667 8.22926 18.4381L7.94673 19.9112C5.95789 19.5298 4.36735 18.0244 3.86202 16.0682L5.31435 15.693ZM9.94105 11.1759C7.18864 10.3665 4.59178 12.8959 5.31435 15.693L3.86202 16.0682C2.85311 12.1626 6.47515 8.59317 10.3642 9.73687L9.94105 11.1759ZM11.9789 9.13808C12.3454 10.3845 11.1874 11.5425 9.94105 11.1759L10.3642 9.73687C10.4716 9.76845 10.5714 9.66867 10.5398 9.56127L11.9789 9.13808ZM16.496 4.51134C13.6989 3.78877 11.1695 6.38564 11.9789 9.13808L10.5398 9.56127C9.39617 5.67216 12.9656 2.0501 16.8712 3.05901L16.496 4.51134ZM19.2411 7.42627C18.9697 6.01137 17.8955 4.87285 16.496 4.51134L16.8712 3.05901C18.8274 3.56434 20.3328 5.1549 20.7142 7.14375L19.2411 7.42627ZM22.4689 16.2928C23.08 19.4794 20.2824 22.277 17.0958 21.6659L17.3783 20.1927C19.5237 20.6042 21.4072 18.7207 20.9957 16.5753L22.4689 16.2928ZM7.06586 5.2022L8.48008 6.61641L7.41942 7.67707L6.0052 6.26286L7.06586 5.2022ZM7.77297 1.66666L9.18718 3.08088L8.12652 4.14154L6.71231 2.72732L7.77297 1.66666ZM3.53033 5.90931L4.94454 7.32352L3.88388 8.38418L2.46967 6.96996L3.53033 5.90931Z" fill="#F2F4F5"/>
</svg>
